<svg width="96" height="96" viewBox="0 0 96 96" fill="none" xmlns="http://www.w3.org/2000/svg">
<rect width="96" height="96" fill="#FFA600"/>
<path d="M43.95 35.3C43.95 36.9667 43.15 38.45 41.55 39.75C39.9833 41.05 38.1667 42 36.1 42.6C34.0667 43.2 32.1 43.5 30.2 43.5C29.7 43.5 29.3333 43.4833 29.1 43.45V41.75C29.1667 41.75 30.1333 41.6 32 41.3C33.8667 40.9667 35.4333 40.4 36.7 39.6C38 38.8 38.65 37.9 38.65 36.9C38.65 35.7 37.75 35.1 35.95 35.1C33.5167 35.1 31.2167 35.9333 29.05 37.6C26.8833 39.2667 25.8 41.0167 25.8 42.85C25.8 44.6833 26.9333 45.8667 29.2 46.4C29.7 46.5333 30.0333 46.6667 30.2 46.8C30.3667 46.9333 30.45 47.1667 30.45 47.5C30.45 47.8333 30.2833 48.1167 29.95 48.35C29.65 48.55 28.9333 48.85 27.8 49.25C21.6667 51.35 18.6 54.6167 18.6 59.05C18.6 59.95 18.7667 60.7167 19.1 61.35C21.1333 58.75 23.7667 56.6333 27 55C30.2333 53.3667 33.35 52.55 36.35 52.55C37.9167 52.55 39.1667 52.9 40.1 53.6C41.0333 54.2667 41.5 55.2 41.5 56.4C41.5 58.2667 40.6333 60.1333 38.9 62C37.1667 63.8667 34.9167 65.3833 32.15 66.55C29.4167 67.75 26.6833 68.35 23.95 68.35C21.25 68.35 19.1167 67.85 17.55 66.85C17.5167 66.8833 17.3667 67.1333 17.1 67.6C16.4333 68.9333 15.8667 69.8667 15.4 70.4L13.75 69.7C13.9833 68.7667 14.6667 67.35 15.8 65.45C14.2667 63.7167 13.5 61.7833 13.5 59.65C13.5 57.4833 14.3667 55.4333 16.1 53.5C17.8667 51.5333 20.3167 49.9167 23.45 48.65C21.8833 47.35 21.1 46 21.1 44.6C21.1 42.7 22.1 40.7667 24.1 38.8C26.1 36.8 28.5333 35.1833 31.4 33.95C34.3 32.7167 37.0167 32.1 39.55 32.1C40.8833 32.1 41.95 32.4 42.75 33C43.55 33.5667 43.95 34.3333 43.95 35.3ZM33.45 55.55C31.4833 55.55 29.1833 56.3 26.55 57.8C23.95 59.3 21.8333 61.0833 20.2 63.15C21.5333 64.65 23.4167 65.4 25.85 65.4C28.3167 65.4 30.7167 64.6167 33.05 63.05C35.4167 61.45 36.6 59.7333 36.6 57.9C36.6 57.1667 36.3167 56.6 35.75 56.2C35.1833 55.7667 34.4167 55.55 33.45 55.55ZM70.1473 32.95L81.9973 33.3C82.5973 33.3 83.3473 33.1667 84.2473 32.9C85.1806 32.6 85.7973 32.45 86.0973 32.45C86.3973 32.45 86.6306 32.55 86.7973 32.75C86.9973 32.9167 87.0973 33.1333 87.0973 33.4C87.0973 34.1 86.7806 34.7 86.1473 35.2C85.5139 35.6667 84.6806 36 83.6473 36.2C81.7139 36.6333 79.9973 36.85 78.4973 36.85C76.4639 38.25 74.4806 42.2833 72.5473 48.95C75.8473 48.95 77.8973 49 78.6973 49.1L78.5973 51.45C78.0973 51.4833 77.3473 51.5 76.3473 51.5L71.7973 51.35C69.9306 57.05 67.4139 61.5833 64.2473 64.95C61.0806 68.3167 57.7306 70 54.1973 70C52.0306 70 50.2806 69.35 48.9473 68.05C47.6139 66.75 46.9473 65.0333 46.9473 62.9C46.9473 59.4667 48.9973 56.35 53.0973 53.55C57.1973 50.7167 62.2473 49.2167 68.2473 49.05C70.2806 42.65 72.6639 38.5833 75.3973 36.85L67.3473 36.55C63.9806 36.55 61.4639 36.9833 59.7973 37.85C58.1639 38.7167 57.3473 39.8667 57.3473 41.3C57.3473 42.0667 57.6639 42.7167 58.2973 43.25C58.9306 43.75 59.5639 44 60.1973 44C60.8306 44 61.2973 43.9833 61.5973 43.95C61.9306 43.8833 62.3306 43.7667 62.7973 43.6C63.2973 43.4 63.6473 43.2667 63.8473 43.2C64.5473 42.9667 65.3973 42.6 66.3973 42.1L67.4473 43.4C64.9139 45.9333 62.1473 47.2 59.1473 47.2C57.8139 47.2 56.7139 46.7833 55.8473 45.95C54.9806 45.1167 54.5473 44.0667 54.5473 42.8C54.5473 40.0333 55.9639 37.7 58.7973 35.8C61.6306 33.9 65.4139 32.95 70.1473 32.95ZM63.1473 60.9C64.9473 58.1 66.3806 54.9667 67.4473 51.5C63.3139 51.8333 59.6639 53.15 56.4973 55.45C53.3639 57.75 51.7973 60.2167 51.7973 62.85C51.7973 63.8833 52.1473 64.7333 52.8473 65.4C53.5806 66.0667 54.5306 66.4 55.6973 66.4C56.8639 66.4 58.1306 65.9 59.4973 64.9C60.8639 63.9333 62.0806 62.6 63.1473 60.9Z" fill="black"/>
</svg>
