<svg width="47" height="37" viewBox="0 0 47 37" fill="none" xmlns="http://www.w3.org/2000/svg">
<path d="M44.8992 0.348932C42.7806 -0.663899 40.4176 1.28942 39.0323 2.44694C35.8546 5.19605 33.1656 8.37923 30.1505 11.273C26.8097 14.4562 23.7133 17.6394 20.2909 20.7504C18.3353 22.4866 16.2167 24.3676 14.913 26.538C11.9795 24.0058 9.45351 21.2567 6.19413 19.0141C3.83108 17.4225 -0.0801702 16.265 0.0013142 20.0992C0.164283 25.0912 5.13483 30.4447 8.80163 33.8448C10.3498 35.2917 12.3869 36.811 14.75 36.8833C17.6019 37.028 20.5354 33.9895 22.2466 32.3256C25.2616 29.4318 27.7061 26.1761 30.4765 23.2101C34.0618 19.3035 37.7286 15.469 41.2324 11.4901C43.4325 9.03034 50.3587 2.95324 44.8992 0.348932ZM3.5865 19.8099C3.50501 19.8099 3.42353 19.8099 3.26056 19.8821C2.93462 19.8099 2.69017 19.7374 2.36423 19.5927C2.60868 19.448 3.0161 19.5204 3.5865 19.8099Z" fill="#FFA600"/>
</svg>
