<svg width="23" height="19" viewBox="0 0 23 19" fill="none" xmlns="http://www.w3.org/2000/svg">
<path d="M21.972 0.179193C20.9352 -0.340909 19.7789 0.662145 19.101 1.25655C17.5459 2.66825 16.23 4.30286 14.7546 5.78887C13.1197 7.42347 11.6044 9.05808 9.92964 10.6556C8.97263 11.5472 7.93587 12.5131 7.29786 13.6276C5.86235 12.3273 4.62622 10.9156 3.0312 9.764C1.87482 8.94669 -0.0392011 8.35229 0.000674284 10.3212C0.080425 12.8847 2.51282 15.6338 4.30721 17.3798C5.06484 18.1228 6.06173 18.9029 7.21811 18.9401C8.61375 19.0144 10.0493 17.4541 10.8866 16.5996C12.3621 15.1136 13.5584 13.4418 14.9141 11.9187C16.6686 9.9126 18.463 7.94358 20.1776 5.90032C21.2542 4.63721 24.6436 1.51654 21.972 0.179193ZM1.75512 10.1726C1.71525 10.1726 1.67537 10.1726 1.59562 10.2097C1.43612 10.1726 1.3165 10.1354 1.15699 10.0611C1.27662 9.98684 1.476 10.024 1.75512 10.1726Z" fill="#FFA600"/>
</svg>
