<svg width="42" height="42" viewBox="0 0 42 42" fill="none" xmlns="http://www.w3.org/2000/svg">
<path d="M24.386 41.7266C24.2111 41.7551 24.0355 41.7814 23.8593 41.8054C24.0355 41.7814 24.2111 41.7551 24.386 41.7266Z" fill="white"/>
<path d="M24.8061 41.6548C24.7225 41.6702 24.6389 41.6843 24.5552 41.6987C24.6389 41.6843 24.7225 41.6702 24.8061 41.6548Z" fill="white"/>
<path d="M23.3901 41.8638C23.1854 41.8868 22.9793 41.9073 22.7726 41.9247C22.9793 41.9073 23.1854 41.8868 23.3901 41.8638Z" fill="white"/>
<path d="M23.7935 41.8145C23.6952 41.8276 23.5962 41.8398 23.4975 41.8513C23.5962 41.8398 23.6952 41.8276 23.7935 41.8145Z" fill="white"/>
<path d="M25.3778 41.5415C25.3041 41.5572 25.2301 41.5729 25.156 41.588C25.2301 41.5729 25.3041 41.5572 25.3778 41.5415Z" fill="white"/>
<path d="M26.7967 41.189C26.7371 41.2059 26.6775 41.222 26.6179 41.2386C26.6775 41.222 26.7371 41.2059 26.7967 41.189Z" fill="white"/>
<path d="M26.3676 41.3062C26.3029 41.3231 26.2378 41.3404 26.1728 41.3568C26.2378 41.3404 26.3029 41.3235 26.3676 41.3062Z" fill="white"/>
<path d="M25.8062 41.4468C25.7376 41.4628 25.6684 41.4779 25.5992 41.4932C25.6684 41.4779 25.7376 41.4628 25.8062 41.4468Z" fill="white"/>
<path d="M22.7659 41.9253C22.6554 41.9346 22.5448 41.9429 22.434 41.9503C22.5448 41.9429 22.6554 41.9346 22.7659 41.9253Z" fill="white"/>
<path d="M42 21C42 9.40379 32.5962 0 21 0C9.40379 0 0 9.40379 0 21C0 32.5962 9.40379 42 21 42C21.1234 42 21.2461 41.9974 21.3691 41.9952V25.6476H16.8574V20.3896H21.3691V16.5203C21.3691 12.033 24.1085 9.59061 28.1114 9.59061C30.0282 9.59061 31.6759 9.73352 32.1562 9.79729V14.4872H29.396C27.2184 14.4872 26.7967 15.5222 26.7967 17.0407V20.3896H32.0037L31.325 25.6476H26.7967V41.1887C35.5743 38.6723 42 30.5855 42 21Z" fill="white"/>
<path d="M22.3875 41.9531C22.1689 41.9672 21.9494 41.9784 21.7293 41.9858C21.9494 41.9784 22.1689 41.9672 22.3875 41.9531Z" fill="white"/>
<path d="M21.7181 41.9863C21.6021 41.9899 21.4858 41.9926 21.3694 41.9944C21.4858 41.9926 21.6021 41.9899 21.7181 41.9863Z" fill="white"/>
</svg>
